<svg width="24" height="24" viewBox="0 0 24 24"  fill="none" xmlns="http://www.w3.org/2000/svg">
<path fill-rule="evenodd" clip-rule="evenodd" d="M8.315 2a3.158 3.158 0 0 0-3.157 3.158A3.158 3.158 0 0 0 2 8.315a3.158 3.158 0 0 0 3.158 3.16 3.158 3.158 0 0 0 2.226-.931l6.072 6.07a3.158 3.158 0 0 0-.93 2.228A3.158 3.158 0 0 0 15.682 22a3.158 3.158 0 0 0 3.16-3.158A3.158 3.158 0 0 0 22 15.685a3.158 3.158 0 0 0-3.16-3.16 3.158 3.158 0 0 0-2.226.931l-6.073-6.07a3.158 3.158 0 0 0 .932-2.228A3.158 3.158 0 0 0 8.315 2Z" fill="currentColor"/>
</svg>
