<svg
  width="24" height="24" stroke-width="0.4" fill="none" xmlns="http://www.w3.org/2000/svg"
  viewBox="0 0 6.3499999 6.35">
  <path
    fill="currentColor" fill-rule="evenodd" clip-rule="evenodd"
    d="M 0.75541527,0.32168523 C 0.77993767,1.3256723 0.78181643,1.6625104 0.85698663,2.3602989 0.89036402,2.6701307 1.2171381,3.5501023 1.0590494,3.9977866 0.90096066,4.4454708 0.42568175,5.1215614 1.0002216,5.5851848 c 0.57454,0.4636237 1.4455626,0.3540413 1.4455626,0.3540413 0,0 0.4599858,-0.1761988 0.926939,-0.1512044 0.466953,0.024995 0.9702871,0.2534223 1.3262237,0.239648 C 5.0598051,6.0137049 5.5938574,6.0004677 5.6222337,5.5799719 5.6410288,5.301456 5.3399127,5.0079652 4.6499014,4.8338531 4.0529576,4.683225 3.4970722,4.3761025 2.9197289,4.0264251 2.6221799,3.8462096 2.7895109,2.7497181 2.7895109,2.7497181 L 2.9437027,0.32168523"
    id="path2" />
</svg>