<svg width="24" height="24" stroke-width="1.5" fill="none" xmlns="http://www.w3.org/2000/svg">
    <path style="font-variation-settings:normal;opacity:1;vector-effect:none;fill:none;fill-opacity:1;stroke:currentColor;stroke-width:1.5;stroke-linecap:round;stroke-linejoin:round;stroke-miterlimit:4;stroke-dasharray:none;stroke-dashoffset:0;stroke-opacity:1;-inkscape-stroke:none;paint-order:markers stroke fill;stop-color:#000;stop-opacity:1" d="M8.315 2a3.158 3.158 0 0 0-3.157 3.158A3.158 3.158 0 0 0 2 8.315a3.158 3.158 0 0 0 3.158 3.16 3.158 3.158 0 0 0 2.226-.931l6.072 6.07a3.158 3.158 0 0 0-.93 2.228A3.158 3.158 0 0 0 15.682 22a3.158 3.158 0 0 0 3.16-3.158A3.158 3.158 0 0 0 22 15.685a3.158 3.158 0 0 0-3.16-3.16 3.158 3.158 0 0 0-2.226.931l-6.073-6.07a3.158 3.158 0 0 0 .932-2.228A3.158 3.158 0 0 0 8.315 2Z"/>
</svg>
