<?xml version="1.0" encoding="UTF-8" standalone="no"?>
<!-- Uploaded to: SVG Repo, www.svgrepo.com, Generator: SVG Repo Mixer Tools -->

<svg
   width="24"
   height="24"
   viewBox="0 0 0.72 0.72"
   version="1.1"
   id="svg1"
   sodipodi:docname="foot.svg"
   inkscape:version="1.3 (0e150ed6c4, 2023-07-21)"
   xmlns:inkscape="http://www.inkscape.org/namespaces/inkscape"
   xmlns:sodipodi="http://sodipodi.sourceforge.net/DTD/sodipodi-0.dtd"
   xmlns="http://www.w3.org/2000/svg"
   xmlns:svg="http://www.w3.org/2000/svg">
  <sodipodi:namedview
     id="namedview1"
     pagecolor="#ffffff"
     bordercolor="#000000"
     borderopacity="0.25"
     inkscape:showpageshadow="2"
     inkscape:pageopacity="0.0"
     inkscape:pagecheckerboard="0"
     inkscape:deskcolor="#d1d1d1"
     inkscape:zoom="16"
     inkscape:cx="10.28125"
     inkscape:cy="19.96875"
     inkscape:window-width="1920"
     inkscape:window-height="1009"
     inkscape:window-x="-8"
     inkscape:window-y="-8"
     inkscape:window-maximized="1"
     inkscape:current-layer="svg1" />
  <defs
     id="defs1">
    <style
       id="style1">.cls-1{fill:none;stroke:#020202;stroke-miterlimit:10;stroke-width:1.91px;}</style>
  </defs>
  <g
     id="leg"
     transform="matrix(0.03020998,0,0,0.03020998,0.01515709,-9.2733197e-4)">
    <path
       class="cls-1"
       d="m 2.43,0.5 a 80.11,80.11 0 0 0 1.11,13.3 l 0.06,0.38 a 3.55,3.55 0 0 1 -0.6,2.47 3.71,3.71 0 0 0 -0.57,2.47 4.09,4.09 0 0 0 4,3.38 h 2.62 l 1,-0.25 a 12.28,12.28 0 0 1 5.78,0 l 1,0.25 h 2.79 A 1.92,1.92 0 0 0 21.47,20 2,2 0 0 0 19.55,18.69 v 0 A 7.56,7.56 0 0 1 16.12,17.88 L 11.79,15.7 A 2.89,2.89 0 0 1 10.21,12.94 L 11,0.5"
       id="path1" />
  </g>
</svg>
